<mxfile host="app.diagrams.net" agent="Mozilla/5.0 (Windows NT 10.0; Win64; x64) AppleWebKit/537.36 (KHTML, like Gecko) Chrome/136.0.0.0 YaBrowser/25.6.0.0 Safari/537.36" version="28.0.3">
  <diagram name="Страница — 1" id="POfgLmeg4gEPXaIbENuW">
    <mxGraphModel dx="1392" dy="767" grid="1" gridSize="10" guides="1" tooltips="1" connect="1" arrows="1" fold="1" page="1" pageScale="1" pageWidth="1169" pageHeight="827" math="0" shadow="0">
      <root>
        <mxCell id="0" />
        <mxCell id="1" parent="0" />
        <mxCell id="y3B0rme0SWgHnOlkkDld-12" value="" style="edgeStyle=orthogonalEdgeStyle;rounded=0;orthogonalLoop=1;jettySize=auto;html=1;" edge="1" parent="1" source="y3B0rme0SWgHnOlkkDld-1" target="y3B0rme0SWgHnOlkkDld-2">
          <mxGeometry relative="1" as="geometry" />
        </mxCell>
        <mxCell id="y3B0rme0SWgHnOlkkDld-1" value="Начало" style="ellipse;whiteSpace=wrap;html=1;" vertex="1" parent="1">
          <mxGeometry x="90" y="50" width="120" height="50" as="geometry" />
        </mxCell>
        <mxCell id="y3B0rme0SWgHnOlkkDld-5" value="" style="edgeStyle=orthogonalEdgeStyle;rounded=0;orthogonalLoop=1;jettySize=auto;html=1;" edge="1" parent="1" source="y3B0rme0SWgHnOlkkDld-2" target="y3B0rme0SWgHnOlkkDld-4">
          <mxGeometry relative="1" as="geometry" />
        </mxCell>
        <mxCell id="y3B0rme0SWgHnOlkkDld-14" value="" style="edgeStyle=orthogonalEdgeStyle;rounded=0;orthogonalLoop=1;jettySize=auto;html=1;" edge="1" parent="1" source="y3B0rme0SWgHnOlkkDld-2" target="y3B0rme0SWgHnOlkkDld-13">
          <mxGeometry relative="1" as="geometry" />
        </mxCell>
        <mxCell id="y3B0rme0SWgHnOlkkDld-2" value="Получение изображения" style="shape=parallelogram;perimeter=parallelogramPerimeter;whiteSpace=wrap;html=1;fixedSize=1;" vertex="1" parent="1">
          <mxGeometry x="90" y="140" width="120" height="50" as="geometry" />
        </mxCell>
        <mxCell id="y3B0rme0SWgHnOlkkDld-7" value="" style="edgeStyle=orthogonalEdgeStyle;rounded=0;orthogonalLoop=1;jettySize=auto;html=1;" edge="1" parent="1" source="y3B0rme0SWgHnOlkkDld-4" target="y3B0rme0SWgHnOlkkDld-6">
          <mxGeometry relative="1" as="geometry" />
        </mxCell>
        <mxCell id="y3B0rme0SWgHnOlkkDld-4" value="&amp;nbsp;Коррекция шумов, яркости, контрастности, резкости" style="rounded=0;whiteSpace=wrap;html=1;" vertex="1" parent="1">
          <mxGeometry x="90" y="220" width="120" height="80" as="geometry" />
        </mxCell>
        <mxCell id="y3B0rme0SWgHnOlkkDld-9" value="" style="edgeStyle=orthogonalEdgeStyle;rounded=0;orthogonalLoop=1;jettySize=auto;html=1;" edge="1" parent="1" source="y3B0rme0SWgHnOlkkDld-6" target="y3B0rme0SWgHnOlkkDld-8">
          <mxGeometry relative="1" as="geometry" />
        </mxCell>
        <mxCell id="y3B0rme0SWgHnOlkkDld-6" value="Изменение размера изображения до принятого стандарта" style="rounded=0;whiteSpace=wrap;html=1;" vertex="1" parent="1">
          <mxGeometry x="90" y="340" width="120" height="60" as="geometry" />
        </mxCell>
        <mxCell id="y3B0rme0SWgHnOlkkDld-11" value="" style="edgeStyle=orthogonalEdgeStyle;rounded=0;orthogonalLoop=1;jettySize=auto;html=1;" edge="1" parent="1" source="y3B0rme0SWgHnOlkkDld-8" target="y3B0rme0SWgHnOlkkDld-10">
          <mxGeometry relative="1" as="geometry" />
        </mxCell>
        <mxCell id="y3B0rme0SWgHnOlkkDld-8" value="Анализ изображения нейронной сетью" style="rounded=0;whiteSpace=wrap;html=1;" vertex="1" parent="1">
          <mxGeometry x="90" y="440" width="120" height="60" as="geometry" />
        </mxCell>
        <mxCell id="y3B0rme0SWgHnOlkkDld-16" value="" style="edgeStyle=orthogonalEdgeStyle;rounded=0;orthogonalLoop=1;jettySize=auto;html=1;" edge="1" parent="1" source="y3B0rme0SWgHnOlkkDld-10" target="y3B0rme0SWgHnOlkkDld-13">
          <mxGeometry relative="1" as="geometry" />
        </mxCell>
        <mxCell id="y3B0rme0SWgHnOlkkDld-10" value="Формирование проанализированного изображения" style="shape=parallelogram;perimeter=parallelogramPerimeter;whiteSpace=wrap;html=1;fixedSize=1;" vertex="1" parent="1">
          <mxGeometry x="60" y="540" width="180" height="50" as="geometry" />
        </mxCell>
        <mxCell id="y3B0rme0SWgHnOlkkDld-18" value="" style="edgeStyle=orthogonalEdgeStyle;rounded=0;orthogonalLoop=1;jettySize=auto;html=1;" edge="1" parent="1" source="y3B0rme0SWgHnOlkkDld-13" target="y3B0rme0SWgHnOlkkDld-17">
          <mxGeometry relative="1" as="geometry" />
        </mxCell>
        <mxCell id="y3B0rme0SWgHnOlkkDld-13" value="Запись изображения в БД" style="rounded=0;whiteSpace=wrap;html=1;" vertex="1" parent="1">
          <mxGeometry x="300" y="535" width="120" height="60" as="geometry" />
        </mxCell>
        <mxCell id="y3B0rme0SWgHnOlkkDld-17" value="Конец" style="ellipse;whiteSpace=wrap;html=1;" vertex="1" parent="1">
          <mxGeometry x="300" y="660" width="120" height="50" as="geometry" />
        </mxCell>
        <mxCell id="y3B0rme0SWgHnOlkkDld-23" value="" style="edgeStyle=orthogonalEdgeStyle;rounded=0;orthogonalLoop=1;jettySize=auto;html=1;" edge="1" parent="1" source="y3B0rme0SWgHnOlkkDld-19" target="y3B0rme0SWgHnOlkkDld-21">
          <mxGeometry relative="1" as="geometry" />
        </mxCell>
        <mxCell id="y3B0rme0SWgHnOlkkDld-19" value="Вход пользователя&amp;nbsp;&lt;div&gt;в систему&lt;/div&gt;" style="ellipse;whiteSpace=wrap;html=1;" vertex="1" parent="1">
          <mxGeometry x="780" y="40" width="140" height="60" as="geometry" />
        </mxCell>
        <mxCell id="y3B0rme0SWgHnOlkkDld-25" value="" style="edgeStyle=orthogonalEdgeStyle;rounded=0;orthogonalLoop=1;jettySize=auto;html=1;" edge="1" parent="1" source="y3B0rme0SWgHnOlkkDld-20" target="y3B0rme0SWgHnOlkkDld-24">
          <mxGeometry relative="1" as="geometry" />
        </mxCell>
        <mxCell id="y3B0rme0SWgHnOlkkDld-20" value="Вывести список изображений для пользователя" style="rounded=0;whiteSpace=wrap;html=1;" vertex="1" parent="1">
          <mxGeometry x="790" y="250" width="120" height="60" as="geometry" />
        </mxCell>
        <mxCell id="y3B0rme0SWgHnOlkkDld-22" value="" style="edgeStyle=orthogonalEdgeStyle;rounded=0;orthogonalLoop=1;jettySize=auto;html=1;" edge="1" parent="1" source="y3B0rme0SWgHnOlkkDld-21" target="y3B0rme0SWgHnOlkkDld-20">
          <mxGeometry relative="1" as="geometry" />
        </mxCell>
        <mxCell id="y3B0rme0SWgHnOlkkDld-21" value="Получить список изображений из БД" style="shape=parallelogram;perimeter=parallelogramPerimeter;whiteSpace=wrap;html=1;fixedSize=1;" vertex="1" parent="1">
          <mxGeometry x="770" y="150" width="160" height="60" as="geometry" />
        </mxCell>
        <mxCell id="y3B0rme0SWgHnOlkkDld-31" value="" style="edgeStyle=orthogonalEdgeStyle;rounded=0;orthogonalLoop=1;jettySize=auto;html=1;" edge="1" parent="1" source="y3B0rme0SWgHnOlkkDld-24" target="y3B0rme0SWgHnOlkkDld-30">
          <mxGeometry relative="1" as="geometry" />
        </mxCell>
        <mxCell id="y3B0rme0SWgHnOlkkDld-24" value="Получить&amp;nbsp;&lt;div&gt;изображение&amp;nbsp;&lt;span style=&quot;background-color: transparent; color: light-dark(rgb(0, 0, 0), rgb(255, 255, 255));&quot;&gt;из БД по выбору пользователя&lt;/span&gt;&lt;/div&gt;" style="shape=parallelogram;perimeter=parallelogramPerimeter;whiteSpace=wrap;html=1;fixedSize=1;" vertex="1" parent="1">
          <mxGeometry x="772.5" y="354" width="155" height="60" as="geometry" />
        </mxCell>
        <mxCell id="y3B0rme0SWgHnOlkkDld-27" value="Пользователь" style="shape=umlActor;verticalLabelPosition=bottom;verticalAlign=top;html=1;outlineConnect=0;" vertex="1" parent="1">
          <mxGeometry x="590" y="270" width="30" height="60" as="geometry" />
        </mxCell>
        <mxCell id="y3B0rme0SWgHnOlkkDld-28" value="" style="endArrow=classic;html=1;rounded=0;entryX=0;entryY=0.5;entryDx=0;entryDy=0;" edge="1" parent="1" target="y3B0rme0SWgHnOlkkDld-24">
          <mxGeometry width="50" height="50" relative="1" as="geometry">
            <mxPoint x="630" y="310" as="sourcePoint" />
            <mxPoint x="620" y="340" as="targetPoint" />
          </mxGeometry>
        </mxCell>
        <mxCell id="y3B0rme0SWgHnOlkkDld-29" value="Выбор изображения" style="text;html=1;align=center;verticalAlign=middle;whiteSpace=wrap;rounded=0;" vertex="1" parent="1">
          <mxGeometry x="640" y="354" width="110" height="30" as="geometry" />
        </mxCell>
        <mxCell id="y3B0rme0SWgHnOlkkDld-33" value="" style="edgeStyle=orthogonalEdgeStyle;rounded=0;orthogonalLoop=1;jettySize=auto;html=1;" edge="1" parent="1" source="y3B0rme0SWgHnOlkkDld-30" target="y3B0rme0SWgHnOlkkDld-32">
          <mxGeometry relative="1" as="geometry" />
        </mxCell>
        <mxCell id="y3B0rme0SWgHnOlkkDld-30" value="Открыть просмотрщик изображений" style="rounded=0;whiteSpace=wrap;html=1;" vertex="1" parent="1">
          <mxGeometry x="790" y="460" width="120" height="60" as="geometry" />
        </mxCell>
        <mxCell id="y3B0rme0SWgHnOlkkDld-36" value="" style="edgeStyle=orthogonalEdgeStyle;rounded=0;orthogonalLoop=1;jettySize=auto;html=1;" edge="1" parent="1" source="y3B0rme0SWgHnOlkkDld-32" target="y3B0rme0SWgHnOlkkDld-35">
          <mxGeometry relative="1" as="geometry" />
        </mxCell>
        <mxCell id="y3B0rme0SWgHnOlkkDld-32" value="Пользователь выходит&amp;nbsp;&lt;div&gt;из просмотрщика&lt;/div&gt;" style="shape=parallelogram;perimeter=parallelogramPerimeter;whiteSpace=wrap;html=1;fixedSize=1;" vertex="1" parent="1">
          <mxGeometry x="770" y="570" width="160" height="60" as="geometry" />
        </mxCell>
        <mxCell id="y3B0rme0SWgHnOlkkDld-35" value="Выход пользователя&amp;nbsp;&lt;div&gt;из системы&lt;/div&gt;" style="ellipse;whiteSpace=wrap;html=1;" vertex="1" parent="1">
          <mxGeometry x="780" y="690" width="140" height="60" as="geometry" />
        </mxCell>
        <mxCell id="y3B0rme0SWgHnOlkkDld-38" value="" style="endArrow=none;html=1;rounded=0;" edge="1" parent="1">
          <mxGeometry width="50" height="50" relative="1" as="geometry">
            <mxPoint x="850" y="660" as="sourcePoint" />
            <mxPoint x="1000" y="660" as="targetPoint" />
          </mxGeometry>
        </mxCell>
        <mxCell id="y3B0rme0SWgHnOlkkDld-39" value="" style="endArrow=none;html=1;rounded=0;" edge="1" parent="1">
          <mxGeometry width="50" height="50" relative="1" as="geometry">
            <mxPoint x="1000" y="660" as="sourcePoint" />
            <mxPoint x="1000" y="180" as="targetPoint" />
          </mxGeometry>
        </mxCell>
        <mxCell id="y3B0rme0SWgHnOlkkDld-40" value="" style="endArrow=classic;html=1;rounded=0;entryX=1;entryY=0.5;entryDx=0;entryDy=0;" edge="1" parent="1" target="y3B0rme0SWgHnOlkkDld-21">
          <mxGeometry width="50" height="50" relative="1" as="geometry">
            <mxPoint x="1000" y="180" as="sourcePoint" />
            <mxPoint x="700" y="390" as="targetPoint" />
          </mxGeometry>
        </mxCell>
      </root>
    </mxGraphModel>
  </diagram>
</mxfile>
